# xmcd
#
# Track frame offsets:
#	150
#	17276
#	34220
#	48792
#	66883
#	78723
#	95308
#	111622
#	125323
#	143684
#	158012
#	175432
#	192668
#	212156
#	226164
#	242157
#	258876
#	276306
#	291959
#
# Disc length: 4038 seconds
#
# Revision: 0
# Processed by: cddbd v1.5.1PL2 Copyright (c) Steve Scherf et al.
# Submitted via: audiograbber 1.83.01
#
DISCID=120fc413
DTITLE=Various Artist - Hott Country 124
DYEAR=2006
DGENRE=Country
TTITLE0=Adam Gregory - Get It On
TTITLE1=Josh turner - Would You Go With Me
TTITLE2=Los Lonely Boys - Diamonds
TTITLE3=Chris Cagle - Anywhere But Here
TTITLE4=Prairie Oyster - Sweet Sweet Girl To Me
TTITLE5=Jeff Bates - One Second Chance
TTITLE6=SheDaisy - In Terms Of Love
TTITLE7=Brian Littrell - Welcome Home
TTITLE8=Toby Keith - A Little Too Late
TTITLE9=Danielle Peck - Findin' A Good Man
TTITLE10=Carolyn Dawn Johnson - Crybaby (edit)
TTITLE11=Rockie Lynn - Do We Still
TTITLE12=Brooks and Dunne - Building Bridges
TTITLE13=Little Willies - Best Of All Possible Worlds
TTITLE14=Gary Nichols - Unbroken Ground
TTITLE15=Trent Tomlinson - One WiIng In The Fire
TTITLE16=Rodney Crowell - The Obscenity Prayer
TTITLE17=Roseanne Cash - House On The Lake
TTITLE18=B.W. Stevenson - My Maria
EXTD=June 2006
EXTT0=
EXTT1=
EXTT2=
EXTT3=
EXTT4=
EXTT5=
EXTT6=
EXTT7=
EXTT8=
EXTT9=
EXTT10=
EXTT11=
EXTT12=
EXTT13=
EXTT14=
EXTT15=
EXTT16=
EXTT17=
EXTT18=
PLAYORDER=
